# Blender 3.3.1
# www.blender.org
mtllib Grave.mtl
o Middle
v -0.627445 17.025414 0.652132
v -3.187197 15.949093 0.652132
v -1.710649 16.920485 0.652132
v -2.567908 16.641537 0.652132
v -3.046985 16.292370 0.652132
v -3.187197 15.949093 -0.652132
v -0.627445 17.025414 -0.652132
v -3.046985 16.292370 -0.652132
v -2.567908 16.641537 -0.652132
v -1.710649 16.920485 -0.652132
v 3.187197 15.949093 0.652132
v 0.627445 17.025414 0.652132
v 3.046985 16.292370 0.652132
v 2.567908 16.641537 0.652132
v 1.710649 16.920485 0.652132
v 0.627445 17.025414 -0.652132
v 3.187197 15.949093 -0.652132
v 1.710649 16.920485 -0.652132
v 2.567908 16.641537 -0.652132
v 3.046985 16.292370 -0.652132
v -3.187196 -0.297261 0.652132
v -3.001257 -0.483289 0.652132
v -3.155828 -0.414383 0.652132
v -3.118323 -0.451907 0.652132
v -3.001257 -0.483289 -0.652132
v -3.187196 -0.297261 -0.652132
v -3.118323 -0.451907 -0.652132
v -3.155828 -0.414383 -0.652132
v 3.001257 -0.483289 0.652132
v 3.187196 -0.297261 0.652132
v 3.118323 -0.451907 0.652132
v 3.155828 -0.414383 0.652132
v 3.187196 -0.297261 -0.652132
v 3.001257 -0.483289 -0.652132
v 3.155828 -0.414383 -0.652132
v 3.118323 -0.451907 -0.652132
v -1.813288 17.413172 0.652132
v -0.651596 17.525702 0.652132
v -0.651596 17.525702 -0.652132
v -1.813288 17.413172 -0.652132
v -2.798124 17.092709 0.652132
v -2.798124 17.092709 -0.652132
v -3.456170 16.613102 0.652132
v -3.456170 16.613102 -0.652132
v -3.687245 16.047369 0.652132
v -3.687245 16.047369 -0.652132
v 1.813288 17.413172 -0.652132
v 0.651596 17.525702 -0.652132
v 0.651596 17.525702 0.652132
v 1.813288 17.413172 0.652132
v 2.798124 17.092709 -0.652132
v 2.798124 17.092709 0.652132
v 3.456170 16.613102 -0.652132
v 3.456170 16.613102 0.652132
v 3.687245 16.047369 -0.652132
v 3.687245 16.047369 0.652132
v -3.687244 -0.363125 -0.652132
v -3.687244 -0.363125 0.652132
v 3.687244 -0.363125 0.652132
v 3.687244 -0.363125 -0.652132
v -3.377167 -0.900453 -0.652132
v -3.067089 -0.983577 -0.652132
v -3.067089 -0.983577 0.652132
v -3.377167 -0.900453 0.652132
v -3.604160 -0.673351 -0.652132
v -3.604160 -0.673351 0.652132
v 3.377167 -0.900453 0.652132
v 3.067089 -0.983577 0.652132
v 3.067089 -0.983577 -0.652132
v 3.377167 -0.900453 -0.652132
v 3.604160 -0.673351 0.652132
v 3.604160 -0.673351 -0.652132
v -1.710649 16.920485 0.345841
v -0.627445 17.025414 0.345841
v -0.627445 17.025414 -0.345841
v -1.710649 16.920485 -0.345841
v -2.567908 16.641537 0.345841
v -2.567908 16.641537 -0.345841
v -3.046985 16.292370 0.345841
v -3.046985 16.292370 -0.345841
v -3.187197 15.949093 0.345841
v -3.187197 15.949093 -0.345841
v 1.710649 16.920485 -0.345841
v 0.627445 17.025414 -0.345841
v 0.627445 17.025414 0.345841
v 1.710649 16.920485 0.345841
v 2.567908 16.641537 -0.345841
v 2.567908 16.641537 0.345841
v 3.046985 16.292370 -0.345841
v 3.046985 16.292370 0.345841
v 3.187197 15.949093 -0.345841
v 3.187197 15.949093 0.345841
v -3.187196 -0.297261 -0.345841
v -3.187196 -0.297261 0.345841
v 3.187196 -0.297261 0.345841
v 3.187196 -0.297261 -0.345841
v -3.118323 -0.451907 -0.345841
v -3.001257 -0.483289 -0.345841
v -3.001257 -0.483289 0.345841
v -3.118323 -0.451907 0.345841
v -3.155828 -0.414383 -0.345841
v -3.155828 -0.414383 0.345841
v 3.118323 -0.451907 0.345841
v 3.001257 -0.483289 0.345841
v 3.001257 -0.483289 -0.345841
v 3.118323 -0.451907 -0.345841
v 3.155828 -0.414383 0.345841
v 3.155828 -0.414383 -0.345841
vn 0.4549 -0.8906 -0.0000
vn 0.5890 -0.8081 -0.0000
vn -0.9915 -0.1305 -0.0000
vn -0.9813 0.1927 -0.0000
vn 0.9813 -0.1927 -0.0000
vn 0.9915 0.1305 -0.0000
vn 0.0483 0.9988 -0.0000
vn -0.0483 0.9988 -0.0000
vn -0.1306 -0.9914 -0.0000
vn 0.1306 -0.9914 -0.0000
vn -0.2041 0.9789 -0.0000
vn -0.4549 0.8906 -0.0000
vn -0.5890 0.8081 -0.0000
vn -0.9258 0.3781 -0.0000
vn 0.2041 0.9789 -0.0000
vn 0.4549 0.8906 -0.0000
vn 0.5890 0.8081 -0.0000
vn 0.9258 0.3781 -0.0000
vn 0.9813 0.1927 -0.0000
vn -0.2589 -0.9659 -0.0000
vn -0.7073 -0.7069 -0.0000
vn -0.8661 -0.4998 -0.0000
vn 0.2589 -0.9659 -0.0000
vn 0.7073 -0.7069 -0.0000
vn 0.8661 -0.4998 -0.0000
vn 0.9915 -0.1305 -0.0000
vn -0.0000 -0.0000 1.0000
vn -0.0000 -0.0000 -1.0000
vn -0.8661 0.4998 -0.0000
vn -0.7073 0.7069 -0.0000
vn 0.0483 -0.9988 -0.0000
vn -0.0483 -0.9988 -0.0000
vn -0.9915 0.1305 -0.0000
vn 0.9258 -0.3781 -0.0000
vn -0.9813 -0.1927 -0.0000
vn -0.1306 0.9914 -0.0000
vn 0.1306 0.9914 -0.0000
vn -0.2041 -0.9789 -0.0000
vn 0.2589 0.9659 -0.0000
vn -0.4549 -0.8906 -0.0000
vn 0.7073 0.7069 -0.0000
vn 0.8661 0.4998 -0.0000
vn -0.5890 -0.8081 -0.0000
vn 0.2041 -0.9789 -0.0000
vn -0.9258 -0.3781 -0.0000
vn -0.2589 0.9659 -0.0000
vt 0.615622 0.896271
vt 0.612944 0.983048
vt 0.616305 0.932992
vt 0.616788 0.962054
vt 0.616568 0.978295
vt 0.612944 0.264148
vt 0.615622 0.353413
vt 0.616568 0.265803
vt 0.616788 0.277430
vt 0.616305 0.313926
vt 0.612944 0.766952
vt 0.615622 0.853729
vt 0.616568 0.771705
vt 0.616788 0.787946
vt 0.616305 0.817008
vt 0.615622 0.396587
vt 0.612944 0.485853
vt 0.616305 0.436074
vt 0.616788 0.472570
vt 0.616568 0.484197
vt 0.385066 0.983048
vt 0.383436 0.976744
vt 0.383303 0.981985
vt 0.383033 0.980713
vt 0.383436 0.273249
vt 0.385066 0.266945
vt 0.383033 0.269281
vt 0.383303 0.268009
vt 0.383436 0.773255
vt 0.385066 0.766952
vt 0.383033 0.769287
vt 0.383303 0.768015
vt 0.385066 0.483055
vt 0.383436 0.476751
vt 0.383303 0.481991
vt 0.383033 0.480719
vt 0.625000 0.190585
vt 0.625000 0.936472
vt 0.625000 0.308731
vt 0.625000 0.897090
vt 0.625000 0.352910
vt 0.625000 0.313528
vt 0.625000 0.000000
vt 0.625000 0.969858
vt 0.625000 0.260047
vt 0.625000 0.000000
vt 0.625000 0.992166
vt 0.625000 0.252611
vt 0.625000 0.000000
vt 0.625000 1.000000
vt 0.625000 0.250000
vt 0.625000 0.436472
vt 0.625000 0.397090
vt 0.625000 0.441269
vt 0.625000 0.852910
vt 0.625000 0.559415
vt 0.625000 0.813528
vt 0.625000 0.489953
vt 0.625000 0.750000
vt 0.625000 0.780142
vt 0.625000 0.497389
vt 0.625000 0.750000
vt 0.625000 0.757834
vt 0.625000 0.500000
vt 0.625000 0.750000
vt 0.375000 0.250000
vt 0.375000 0.000000
vt 0.375000 1.000000
vt 0.375000 0.750000
vt 0.375000 0.500000
vt 0.135512 0.500000
vt 0.375000 0.260512
vt 0.146024 0.500000
vt 0.375000 0.271024
vt 0.146024 0.750000
vt 0.375000 0.978976
vt 0.135512 0.750000
vt 0.375000 0.989488
vt 0.125000 0.500000
vt 0.375000 0.250000
vt 0.375000 0.252817
vt 0.125000 0.750000
vt 0.375000 0.000000
vt 0.375000 0.997183
vt 0.364488 0.750000
vt 0.375000 0.760512
vt 0.353976 0.750000
vt 0.375000 0.771024
vt 0.353976 0.500000
vt 0.375000 0.478976
vt 0.364488 0.500000
vt 0.375000 0.489488
vt 0.375000 0.750000
vt 0.375000 0.752817
vt 0.375000 0.500000
vt 0.375000 0.497183
vt 0.616305 0.932992
vt 0.615622 0.896271
vt 0.615622 0.353413
vt 0.616305 0.313926
vt 0.616788 0.962054
vt 0.616788 0.277430
vt 0.616568 0.978295
vt 0.616568 0.265803
vt 0.612944 0.983048
vt 0.612944 0.264148
vt 0.616305 0.436074
vt 0.615622 0.396587
vt 0.615622 0.853729
vt 0.616305 0.817008
vt 0.616788 0.472570
vt 0.616788 0.787946
vt 0.616568 0.484197
vt 0.616568 0.771705
vt 0.612944 0.485853
vt 0.612944 0.766952
vt 0.385066 0.266945
vt 0.385066 0.983048
vt 0.385066 0.766952
vt 0.385066 0.483055
vt 0.383033 0.269281
vt 0.383436 0.273249
vt 0.383436 0.976744
vt 0.383033 0.980713
vt 0.383303 0.268009
vt 0.383303 0.981985
vt 0.383033 0.769287
vt 0.383436 0.773255
vt 0.383436 0.476751
vt 0.383033 0.480719
vt 0.383303 0.768015
vt 0.383303 0.481991
s 1
f 4/4/1 5/5/2 79/103/2 77/101/1
f 58/67/3 45/49/4 46/51/4 57/66/3
f 2/2/5 21/21/6 94/118/6 81/105/5
f 48/53/7 39/41/8 38/39/8 49/54/7
f 62/73/9 69/89/10 68/87/10 63/75/9
f 38/39/8 39/41/8 40/42/11 37/37/11
f 37/37/11 40/42/11 42/45/12 41/43/12
f 41/43/12 42/45/12 44/48/13 43/46/13
f 43/46/14 44/48/14 46/51/4 45/49/4
f 48/53/7 49/54/7 50/56/15 47/52/15
f 47/52/15 50/56/15 52/59/16 51/58/16
f 51/58/16 52/59/16 54/62/17 53/61/17
f 53/61/18 54/62/18 56/65/19 55/64/19
f 62/73/9 63/75/9 64/77/20 61/71/20
f 61/71/21 64/77/21 66/82/22 65/79/22
f 65/80/22 66/83/22 58/67/3 57/66/3
f 68/87/10 69/89/10 70/91/23 67/85/23
f 67/85/24 70/91/24 72/95/25 71/93/25
f 71/93/25 72/95/25 60/70/26 59/69/26
f 60/70/26 55/64/19 56/65/19 59/69/26
f 3/3/27 1/1/27 38/40/27 37/38/27
f 7/7/28 10/10/28 40/42/28 39/41/28
f 4/4/27 3/3/27 37/38/27 41/44/27
f 10/10/28 9/9/28 42/45/28 40/42/28
f 5/5/27 4/4/27 41/44/27 43/47/27
f 9/9/28 8/8/28 44/48/28 42/45/28
f 2/2/27 5/5/27 43/47/27 45/50/27
f 8/8/28 6/6/28 46/51/28 44/48/28
f 18/18/28 16/16/28 48/53/28 47/52/28
f 12/12/27 15/15/27 50/57/27 49/55/27
f 19/19/28 18/18/28 47/52/28 51/58/28
f 15/15/27 14/14/27 52/60/27 50/57/27
f 20/20/28 19/19/28 51/58/28 53/61/28
f 14/14/27 13/13/27 54/63/27 52/60/27
f 17/17/28 20/20/28 53/61/28 55/64/28
f 13/13/27 11/11/27 56/65/27 54/63/27
f 6/6/28 26/26/28 57/66/28 46/51/28
f 21/21/27 2/2/27 45/50/27 58/68/27
f 16/16/28 7/7/28 39/41/28 48/53/28
f 1/1/27 12/12/27 49/55/27 38/40/27
f 11/11/27 30/30/27 59/69/27 56/65/27
f 33/33/28 17/17/28 55/64/28 60/70/28
f 27/27/28 25/25/28 62/74/28 61/72/28
f 22/22/27 24/24/27 64/78/27 63/76/27
f 28/28/28 27/27/28 61/72/28 65/81/28
f 24/24/27 23/23/27 66/84/27 64/78/27
f 26/26/28 28/28/28 65/81/28 57/66/28
f 23/23/27 21/21/27 58/68/27 66/84/27
f 31/31/27 29/29/27 68/88/27 67/86/27
f 34/34/28 36/36/28 70/92/28 69/90/28
f 32/32/27 31/31/27 67/86/27 71/94/27
f 36/36/28 35/35/28 72/96/28 70/92/28
f 30/30/27 32/32/27 71/94/27 59/69/27
f 35/35/28 33/33/28 60/70/28 72/96/28
f 25/25/28 34/34/28 69/90/28 62/74/28
f 29/29/27 22/22/27 63/76/27 68/88/27
f 93/117/28 82/106/28 80/104/28 78/102/28 76/100/28 75/99/28 84/108/28 83/107/28 87/111/28 89/113/28 91/115/28 96/120/28 108/132/28 106/130/28 105/129/28 98/122/28 97/121/28 101/125/28
f 95/119/27 92/116/27 90/114/27 88/112/27 86/110/27 85/109/27 74/98/27 73/97/27 77/101/27 79/103/27 81/105/27 94/118/27 102/126/27 100/124/27 99/123/27 104/128/27 103/127/27 107/131/27
f 35/35/29 36/36/30 106/130/30 108/132/29
f 7/7/31 16/16/32 84/108/32 75/99/31
f 8/8/2 9/9/1 78/102/1 80/104/2
f 32/32/29 30/30/33 95/119/33 107/131/29
f 12/12/32 1/1/31 74/98/31 85/109/32
f 5/5/34 2/2/5 81/105/5 79/103/34
f 33/33/33 35/35/29 108/132/29 96/120/33
f 30/30/33 11/11/35 92/116/35 95/119/33
f 6/6/5 8/8/34 80/104/34 82/106/5
f 34/34/36 25/25/37 98/122/37 105/129/36
f 17/17/35 33/33/33 96/120/33 91/115/35
f 16/16/32 18/18/38 83/107/38 84/108/32
f 22/22/37 29/29/36 104/128/36 99/123/37
f 25/25/37 27/27/39 97/121/39 98/122/37
f 15/15/38 12/12/32 85/109/32 86/110/38
f 24/24/39 22/22/37 99/123/37 100/124/39
f 18/18/38 19/19/40 87/111/40 83/107/38
f 27/27/41 28/28/42 101/125/42 97/121/41
f 14/14/40 15/15/38 86/110/38 88/112/40
f 23/23/42 24/24/41 100/124/41 102/126/42
f 19/19/40 20/20/43 89/113/43 87/111/40
f 28/28/42 26/26/6 93/117/6 101/125/42
f 13/13/43 14/14/40 88/112/40 90/114/43
f 1/1/31 3/3/44 73/97/44 74/98/31
f 21/21/6 23/23/42 102/126/42 94/118/6
f 20/20/45 17/17/35 91/115/35 89/113/45
f 10/10/44 7/7/31 75/99/31 76/100/44
f 29/29/36 31/31/46 103/127/46 104/128/36
f 11/11/35 13/13/45 90/114/45 92/116/35
f 3/3/44 4/4/1 77/101/1 73/97/44
f 36/36/46 34/34/36 105/129/36 106/130/46
f 26/26/6 6/6/5 82/106/5 93/117/6
f 9/9/1 10/10/44 76/100/44 78/102/1
f 31/31/30 32/32/29 107/131/29 103/127/30
